<?xml version="1.0" encoding="utf-8"?>
<!-- Generator: Adobe Illustrator 25.0.0, SVG Export Plug-In . SVG Version: 6.00 Build 0)  -->
<svg version="1.1" id="Layer_1" xmlns="http://www.w3.org/2000/svg" xmlns:xlink="http://www.w3.org/1999/xlink" x="0px" y="0px"
	 viewBox="0 0 1203.4 1200" style="enable-background:new 0 0 1203.4 1200;" xml:space="preserve">
<style type="text/css">
	.st0{fill:#FFFFFF;}
	.st1{fill:#006FCF;}
</style>
<polygon class="st0" points="1200,1200 590.5,1200 0,1200 0,590.2 0,0 600,0 1200,0 1200,597.9 1200,1200 "/>
<g>
	<path class="st1" d="M758.2,836.1l-24.1-29.7v29.7h-79v-50.7c-10.2,4.7-21.4,7.1-33.2,7.1H594v43.6H474.8L453,807.5l-21.7,28.6
		H233.4V647.6h198.8l21.7,28.3l21.7-28.3H1200V0H0v506.1l45.2-105.6h77.7l25.2,58.9v-58.9h97.2l15,42.7l14.9-42.7h434.1v21.8
		c15.8-13.9,37.1-21.8,62.3-21.8h138.2l25.2,58.9v-58.9h81.8l21.6,33.5v-33.5h81.7V589H1039l-21.8-34.1V589H898.5l-11.8-28.9h-32.5
		L842.6,589h-73.7c-24.1,0-44.4-7.3-59.6-20.4V589H587.5l-24.1-29.7V589H111.5l-11.8-28.9H67.2L55.7,589H0v611h1200V822.2
		c-12.1,8.8-27.7,13.9-45.6,13.9H758.2L758.2,836.1z"/>
	<path class="st1" d="M1186.7,702.9l14.1-31.7h-74.7c-30.8,0-49,18.8-49,44.4c0,26.7,17.2,42,44.1,42h33.5c7.4,0,12.7,4.6,12.7,11.7
		c0,7.1-5.3,11.5-12.7,11.5h-73.3v31.7h72.9c30.8,0,49-18.6,49-45.9c0-25.7-16.1-40.6-44.1-40.6h-33.5c-7.5,0-12.7-4.6-12.7-11.7
		c0-7.1,5.3-11.5,12.7-11.5H1186.7L1186.7,702.9z M983.5,714.4c0-7.1,5.3-11.5,12.7-11.5h60.9l14.1-31.7h-74.7
		c-30.8,0-49,18.8-49,44.4c0,26.7,17.2,42,44.1,42h33.5c7.4,0,12.7,4.6,12.7,11.7c0,7.1-5.3,11.5-12.7,11.5H952v31.7h72.9
		c30.8,0,49-18.6,49-45.9c0-25.7-16.1-40.6-44.1-40.6h-33.5C988.8,726.1,983.5,721.5,983.5,714.4L983.5,714.4z M820.7,812.6h115.2
		v-31.7h-79.4v-24H934v-30.9h-77.4v-23h79.4v-31.7H820.7V812.6L820.7,812.6z M815,812.6l-45.8-51.5c23.1-4.9,37-22.2,37-44.2
		c0-27.1-18.8-45.6-49-45.6h-78.6v141.4h35.9v-50.1h13.9l42.3,50.1H815L815,812.6z M753.5,731.8h-39v-28.9h39
		c11,0,16.7,6.7,16.7,14.5C770.1,725.5,764.5,731.8,753.5,731.8L753.5,731.8z M663.2,718.8c0-28.3-18.8-47.7-49-47.7h-79.6v141.4
		h35.9v-46.1H613C643.9,766.5,663.2,746.1,663.2,718.8L663.2,718.8z M627.1,719c0,8.7-5.7,15.8-16.7,15.8h-40v-31.9h40
		C621.4,702.9,627.1,710.2,627.1,719L627.1,719z M531.5,812.6l-56.8-71.3l56.4-70.1h-43.9l-33.3,43.4l-33.3-43.4h-45.1l56.6,70.9
		l-56.4,70.5h43.9l33.3-43.8l33.5,43.8H531.5L531.5,812.6z M257.5,812.6h115.2v-31.7h-79.4v-24h77.4v-30.9h-77.4v-23h79.4v-31.7
		H257.5V812.6L257.5,812.6z"/>
	<path class="st1" d="M1096.1,565.4V424h-35.7v87.7L1004,424h-45.5v141.4h35.9v-90.9l58.2,90.9H1096.1L1096.1,565.4z M914.3,565.4
		h40.6L894.3,424h-46.6l-60.6,141.4h39.6l11.6-28.9h64.3L914.3,565.4L914.3,565.4z M890,505.9h-39.2l19.6-48.5L890,505.9L890,505.9z
		 M774.3,456.8h38V424h-40.8c-44.5,0-68.4,29.5-68.4,69.7v2c0,43.4,25.1,69.7,65.6,69.7h2.9l14.7-31.7h-11.6
		c-22.5,0-35.9-13.7-35.9-38v-2C739.1,472.5,750.8,456.8,774.3,456.8L774.3,456.8z M649.9,565.4h35.9v-69.3V424h-35.9v72V565.4
		L649.9,565.4z M644.3,565.4l-45.9-51.5c23.1-4.8,37-22.2,37-44.2c0-27.1-18.8-45.6-49-45.6h-78.6v141.4h35.9v-50.1h13.9l42.3,50.1
		H644.3L644.3,565.4z M582.7,484.6h-39v-28.9h39c11,0,16.7,6.7,16.7,14.5C599.4,478.4,593.7,484.6,582.7,484.6L582.7,484.6z
		 M372.3,565.4h115.2v-31.7h-79.4v-24h77.4v-30.9h-77.4v-23h79.4V424H372.3V565.4L372.3,565.4z M312.9,565.4h35.5V424h-56.4
		l-31.5,90.3L228.7,424h-57v141.4h35.5V460.8l37.2,104.6h31.4l37.2-104.6V565.4L312.9,565.4z M127.4,565.4h40.6L107.4,424H60.7
		L0.2,565.4h39.6l11.6-28.9h64.3L127.4,565.4L127.4,565.4z M103.1,505.9H63.9l19.6-48.5L103.1,505.9L103.1,505.9z"/>
</g>
</svg>
